<?xml version="1.0" encoding="UTF-8" standalone="no"?><!DOCTYPE svg PUBLIC "-//W3C//DTD SVG 1.1//EN" "http://www.w3.org/Graphics/SVG/1.1/DTD/svg11.dtd"><svg width="100%" height="100%" viewBox="0 0 2450 1572" version="1.1" xmlns="http://www.w3.org/2000/svg" xmlns:xlink="http://www.w3.org/1999/xlink" xml:space="preserve" xmlns:serif="http://www.serif.com/" style="fill-rule:evenodd;clip-rule:evenodd;stroke-linejoin:round;stroke-miterlimit:2;"><g><path d="M1232.2,9.1c-2.9,2.4 -5.2,4.8 -5.2,5.5c0,1 -2.7,1.4 -10.2,1.6l-10.3,0.3l-0.3,19.2l-0.2,19.3l-2.8,0c-4,0 -5.4,1.3 -5,4.6c0.3,2.6 0.7,2.9 4.1,3.2l3.7,0.3l0,8c0,7.6 0.1,8 2.6,8.9c3.5,1.4 48,1.3 50.5,0c2.1,-1.2 2.5,-4 0.7,-5.8c-0.9,-0.9 -7.6,-1.2 -24,-1.2l-22.8,0l0,-10l24.3,-0.2l24.2,-0.3l0.3,-2.3c0.7,-5 -0.3,-5.2 -25.4,-5.2l-23.5,0l0.3,-15.8l0.3,-15.7l23,-0.3c12.6,-0.1 23.3,-0.6 23.8,-1.1c0.5,-0.5 0.7,-2.1 0.3,-3.5l-0.6,-2.6l-23.4,0l3.3,-3.4c3.8,-3.9 3.8,-7 0,-7.4c-1.8,-0.2 -4.1,1 -7.7,3.9Z" style="fill:#069;fill-rule:nonzero;"/><path d="M422.6,15.6c-0.3,0.9 -0.6,15.7 -0.6,33c0,28.2 0.2,31.5 1.6,32.1c0.9,0.3 2.4,0.2 3.3,-0.4c1.4,-0.9 1.7,-4.5 2.1,-26.2l0.5,-25.2l24.9,25.7c13.7,14.1 25.9,25.9 27,26.4c4.2,1.5 4.5,-0.6 4.6,-33.2c0,-29.4 -0.1,-30.8 -1.9,-31.8c-2.5,-1.3 -2.7,-1.3 -4.5,0.6c-1.4,1.3 -1.6,5.1 -1.6,26.2l0,24.6l-24.6,-25.2c-24.9,-25.5 -29.6,-29.6 -30.8,-26.6Z" style="fill:#069;fill-rule:nonzero;"/><path d="M1338.6,15.6c-0.3,0.9 -0.6,15.7 -0.6,33c0,28.2 0.2,31.5 1.6,32.1c0.9,0.3 2.4,0.2 3.3,-0.4c1.4,-0.9 1.7,-4.5 2.1,-26.2l0.5,-25.1l24.9,25.6c13.7,14.1 25.9,25.9 27,26.4c4.2,1.5 4.5,-0.6 4.6,-33.2c0,-29.4 -0.1,-30.8 -1.9,-31.8c-2.5,-1.3 -2.7,-1.3 -4.5,0.6c-1.4,1.3 -1.6,5.1 -1.6,26.2l0,24.7l-24.6,-25.3c-24.8,-25.5 -29.6,-29.6 -30.8,-26.6Z" style="fill:#069;fill-rule:nonzero;"/><path d="M1603.6,15.6c-0.3,0.9 -0.6,15.7 -0.6,33c0,28.2 0.2,31.5 1.6,32.1c0.9,0.3 2.4,0.2 3.3,-0.4c1.4,-0.9 1.6,-4.3 1.9,-26.2l0.2,-25.2l25.2,25.6c13.9,14.2 26.1,26.1 27.3,26.5c4.1,1.5 4.4,-0.7 4.5,-32.7c0,-26.1 -0.2,-30.4 -1.6,-31.7c-1.8,-1.9 -2,-1.9 -4.5,-0.6c-1.8,1 -1.9,2.4 -1.9,26.3l-0.1,25.2l-25.2,-25.7c-13.8,-14.1 -26.2,-26.2 -27.4,-26.7c-1.6,-0.8 -2.2,-0.7 -2.7,0.5Z" style="fill:#069;fill-rule:nonzero;"/><path d="M1921.1,16.3c-0.8,1.6 -1.1,10.8 -0.9,32.6c0.3,27.7 0.5,30.5 2.1,31.5c1.2,0.8 2.2,0.8 3.5,0c1.5,-1 1.7,-3.6 2,-26l0.2,-24.9l27.1,27l27,27l1.5,-3.4c1.1,-2.6 1.4,-9.5 1.4,-32.5c0,-16 -0.4,-29.6 -0.8,-30.2c-1.1,-1.7 -3.5,-2.2 -5.4,-1.2c-1.6,0.8 -1.8,3.1 -1.9,26.1l0,25.2l-25.2,-25.6c-13.9,-14.2 -26.1,-26.2 -27.3,-26.8c-1.8,-0.8 -2.3,-0.6 -3.3,1.2Z" style="fill:#069;fill-rule:nonzero;"/><path d="M849.2,16.1c-11.1,2.2 -22.2,10.1 -27,19.4c-2.2,4.1 -2.7,6.4 -2.7,12.5c0,6.5 0.4,8.2 2.9,12.8c14.9,26.9 60,26.5 73.3,-0.7c5.6,-11.3 2.9,-24.5 -6.8,-33.6c-10.1,-9.4 -25,-13.3 -39.7,-10.4Zm21.5,8.4c13.7,4.1 22.5,16.8 19.5,28.2c-5,18.6 -32.5,26.5 -51.3,14.7c-18.5,-11.6 -14.6,-34.5 7.4,-42.4c6.4,-2.4 17.4,-2.6 24.4,-0.5Z" style="fill:#069;fill-rule:nonzero;"/><path d="M1013.2,16.1c-11.1,2.2 -22.2,10.1 -27,19.4c-5.6,11 -2.6,25.3 7.4,34.5c19.3,17.7 54.7,12.7 66.2,-9.5c2.1,-4.1 2.6,-6.4 2.6,-12.5c0,-6.1 -0.5,-8.4 -2.6,-12.5c-7.8,-15.1 -27.4,-23.2 -46.6,-19.4Zm26,10.2c20.8,10.2 20.8,33.2 -0.1,43.4c-5,2.5 -6.7,2.8 -15.6,2.8c-8.9,0 -10.7,-0.3 -16,-2.8c-3.3,-1.6 -7.3,-4 -8.9,-5.5c-3.7,-3.5 -7.6,-11.7 -7.6,-16.2c0,-6.5 4.8,-14.3 12.1,-19.8c7.8,-5.9 26,-6.8 36.1,-1.9Z" style="fill:#069;fill-rule:nonzero;"/><path d="M1294,16.4c-7.9,1.7 -14.8,5.3 -20,10.6c-6.2,6.1 -8.3,11 -8.8,19.8c-0.4,6.6 -0.1,7.9 2.7,13.7c8.4,16.9 31.7,24.7 52.5,17.5c7.6,-2.6 11.8,-5.6 11.4,-8.3c-0.6,-4 -3,-4.2 -10.4,-0.6c-6.4,3.2 -7.5,3.4 -16.9,3.4c-8.7,0 -10.7,-0.3 -15.7,-2.7c-7.7,-3.6 -13.4,-9.7 -15.4,-16.4c-1.4,-4.9 -1.4,-5.9 0,-10.7c2.1,-7.2 6.4,-12 14.4,-15.9c6.2,-3.1 7.4,-3.3 16.7,-3.3c9.3,0 10.4,0.2 16.2,3.3c8.8,4.5 12.3,4.1 10.9,-1.3c-0.4,-1.7 -2.4,-3.3 -6.9,-5.4c-10,-5 -19.7,-6.1 -30.7,-3.7Z" style="fill:#069;fill-rule:nonzero;"/><path d="M1458.2,16.1c-11.1,2.2 -22.2,10.1 -27,19.4c-3.6,6.9 -3.8,17.9 -0.4,24.3c7.9,15 25.7,23.2 43.8,20.4c12.3,-1.9 20.4,-6.3 20.4,-10.9c0,-3.8 -2.6,-3.8 -9.7,-0.2c-6.4,3.2 -7.2,3.4 -17.2,3.4c-9.8,0 -11.1,-0.2 -16.5,-3c-18.6,-9.4 -20.8,-28 -4.8,-40.2c9.7,-7.4 25.4,-8.4 37.5,-2.5c7.1,3.5 9.3,3.7 11.1,1c1.4,-2.3 -1.3,-5.1 -7.8,-8.2c-8.7,-4.1 -19.7,-5.4 -29.4,-3.5Z" style="fill:#069;fill-rule:nonzero;"/><path d="M1524,16.7c-11.7,3.2 -20.9,10.4 -25.1,19.7c-2.9,6.4 -2.6,17.8 0.7,24.4c8.2,16.5 33.1,24.6 52.7,17.2c21.6,-8.2 29.8,-29.2 18.3,-46.5c-8.5,-12.8 -29.4,-19.4 -46.6,-14.8Zm27.5,9.2c17.7,7.9 21.8,26.5 8.5,38.5c-6,5.4 -12.1,7.9 -21.1,8.4c-24.3,1.4 -41.7,-17.8 -31.6,-35c3.3,-5.7 7.6,-9.2 15.4,-12.4c5,-2.1 7,-2.4 14.8,-2.1c6.6,0.2 10.3,0.9 14,2.6Z" style="fill:#069;fill-rule:nonzero;"/><path d="M1708.8,16.2c-0.8,0.7 -6.8,9.7 -13.2,20l-11.8,18.8l-3.8,0c-3.3,0 -7,1.9 -7,3.6c0,1.8 2.4,4.4 4,4.4c1.7,0 1.5,0.8 -2.1,6.2c-4.4,6.9 -4.9,11.1 -1.3,11.6c2.7,0.4 3.7,-0.7 9.7,-10.2l4.8,-7.6l45.6,0l5.4,8.6c2.9,4.8 6,8.9 6.8,9.2c1.7,0.7 4.5,-1 4.9,-3.1c0.3,-1.6 -35,-59.3 -37.6,-61.5c-0.9,-0.6 -1.9,-1.2 -2.2,-1.2c-0.3,0 -1.3,0.6 -2.2,1.2Zm11,24.4c4.6,7.5 8.1,13.8 7.9,14c-0.2,0.3 -8.1,0.3 -17.4,0.2l-17,-0.3l8.6,-13.8c4.7,-7.5 8.8,-13.7 9.1,-13.7c0.3,0 4.2,6.2 8.8,13.6Z" style="fill:#069;fill-rule:nonzero;"/><path d="M1776.2,16.1c-11.1,2.1 -22.6,10.4 -27.2,19.6c-3.6,7 -3.5,17.8 0.2,24.8c7.5,14.3 25.5,22.5 43.5,19.7c12.2,-1.9 20.3,-6.3 20.3,-10.9c0,-3.7 -2.6,-3.8 -9.6,-0.2c-12.1,6.1 -28.9,5 -38.8,-2.6c-8.8,-6.7 -12.5,-16.3 -9.6,-25.1c1.8,-5.3 9.1,-12.7 15.3,-15.5c4.3,-2 6.9,-2.4 15.2,-2.4c9.3,0 10.5,0.2 16.6,3.2c7.4,3.7 9.1,4 10.9,1.8c4.2,-5.1 -14.1,-13.8 -28.4,-13.4c-2.3,0.1 -6,0.5 -8.4,1Z" style="fill:#069;fill-rule:nonzero;"/><path d="M1863.2,16.5c-11.1,2.4 -21.2,9.8 -25.6,18.8c-3.5,6.9 -3.6,17.5 -0.4,24.5c8.9,18.8 36.3,26.6 57.4,16.2c25.7,-12.6 25.8,-44 0.1,-56c-10.6,-5 -19.8,-6 -31.5,-3.5Zm26.3,9.4c9.8,4.4 16.5,13.3 16.5,22.1c0,13.1 -12.6,23.8 -29.1,24.8c-24.3,1.4 -41.7,-17.8 -31.6,-35c3.3,-5.7 7.6,-9.2 15.4,-12.4c5,-2.1 7,-2.4 14.8,-2.1c6.6,0.2 10.3,0.9 14,2.6Z" style="fill:#069;fill-rule:nonzero;"/><path d="M2027.3,15.6c-0.6,0.3 -6.6,9.3 -13.4,20l-12.2,19.4l-3.7,0c-8.1,0 -9.4,5.1 -2.2,8.7c0.2,0.1 -1.3,2.7 -3.3,5.8c-4.1,6.5 -4.4,10.8 -0.8,11.3c2.4,0.3 5,-2.8 10.8,-12.6l3,-5.2l46,0l5.7,9c3.8,6 6.3,9 7.6,9c2.1,0 4.2,-1.8 4.2,-3.6c0,-1.5 -36.8,-60.6 -38.4,-61.6c-1.2,-0.8 -1.6,-0.9 -3.3,-0.2Zm11.1,26.3c4.2,6.8 7.5,12.5 7.3,12.7c-0.2,0.3 -8.1,0.3 -17.5,0.2l-17.1,-0.3l8.6,-13.8c6.8,-10.7 8.9,-13.5 9.8,-12.5c0.7,0.7 4.6,6.9 8.9,13.7Z" style="fill:#069;fill-rule:nonzero;"/><path d="M402.5,18.2c-0.3,1.3 -0.4,15.5 -0.3,31.7c0.3,26.7 0.5,29.5 2.1,30.5c1.2,0.8 2.2,0.8 3.5,0c1.6,-1 1.7,-3.7 1.7,-32.5l0,-31.4l-3.2,-0.3c-2.7,-0.3 -3.3,0.1 -3.8,2Z" style="fill:#069;fill-rule:nonzero;"/><path d="M508.2,17.5c-9.8,3 -15.2,9.3 -15.2,17.5c0,10.6 8.1,15.5 30,18c13.2,1.5 17.7,2.8 20,5.8c2.6,3.2 2.5,4.4 -0.5,8.1c-4,4.7 -9.9,6.4 -20.2,5.9c-7.7,-0.3 -9.6,-0.8 -15,-3.8c-5.2,-2.9 -6.4,-3.2 -7.7,-2.1c-2.5,2.1 -1.9,4.8 1.7,7.4c6.1,4.6 12.3,6.2 23.8,6.2c9.8,0 11,-0.2 16.4,-3c7.8,-4 10.5,-8 10.5,-15.3c0,-5.1 -0.3,-5.8 -3.8,-9.1c-4.6,-4.4 -8.5,-5.7 -21.7,-7.1c-18.6,-2.1 -25.5,-5.2 -25.5,-11.5c0,-3.5 2.3,-6.1 8,-9.1c2.8,-1.5 5.7,-1.9 15,-1.9c12.5,0 17.7,1.5 24.2,7c3.4,2.9 5,3.1 6.8,1c3.3,-4 -3.9,-10.7 -14.9,-13.9c-6.8,-2 -25.7,-2.1 -31.9,-0.1Z" style="fill:#069;fill-rule:nonzero;"/><path d="M556.9,17.6c-0.9,1.1 -1,2 -0.2,3.2c0.8,1.4 3.1,1.8 12.6,2l11.7,0.3l0.2,28.1c0.3,25.5 0.5,28.2 2.1,29.2c1.2,0.8 2.2,0.8 3.5,0c1.5,-1 1.7,-3.7 2,-29.2l0.2,-28.1l11.7,-0.3c9.5,-0.2 11.8,-0.6 12.6,-2c0.8,-1.2 0.7,-2.1 -0.2,-3.2c-1.2,-1.4 -4.9,-1.6 -28.1,-1.6c-23.2,0 -26.9,0.2 -28.1,1.6Z" style="fill:#069;fill-rule:nonzero;"/><path d="M619.5,17.3c-0.3,0.7 -0.4,14.9 -0.3,31.6c0.3,27.7 0.5,30.5 2.1,31.5c1.2,0.8 2.2,0.8 3.5,0c1.5,-1 1.7,-3.8 2,-30.5c0.1,-16.2 0,-30.4 -0.3,-31.7c-0.4,-1.7 -1.3,-2.2 -3.6,-2.2c-1.6,0 -3.2,0.6 -3.4,1.3Z" style="fill:#069;fill-rule:nonzero;"/><path d="M632.9,17.6c-0.9,1.1 -1,2 -0.2,3.2c0.8,1.4 3.1,1.8 12.6,2l11.7,0.3l0.2,28.1c0.3,25.5 0.5,28.2 2.1,29.2c1.2,0.8 2.2,0.8 3.5,0c1.5,-1 1.7,-3.7 2,-29.2l0.2,-28.1l11.7,-0.3c9.5,-0.2 11.8,-0.6 12.6,-2c0.8,-1.2 0.7,-2.1 -0.2,-3.2c-1.2,-1.4 -4.9,-1.6 -28.1,-1.6c-23.2,0 -26.9,0.2 -28.1,1.6Z" style="fill:#069;fill-rule:nonzero;"/><path d="M693.7,16.7c-0.4,0.3 -0.7,10.3 -0.7,22.2c0,24.1 0.6,26.6 7.1,32.8c15,14.2 46.9,11 55.6,-5.6c2.3,-4.4 2.3,-5.1 2.1,-27l-0.3,-22.6l-6,0l-0.5,21.5c-0.6,25.7 -0.9,26.6 -10.9,31.7c-5.4,2.8 -7.3,3.3 -13.4,3.3c-11.7,0 -18.8,-3 -23.4,-9.9c-2.2,-3.3 -2.3,-4.2 -2.3,-23.7c0,-11.1 -0.3,-20.9 -0.6,-21.8c-0.6,-1.6 -5.4,-2.2 -6.7,-0.9Z" style="fill:#069;fill-rule:nonzero;"/><path d="M762.4,17.4c-0.3,0.8 -0.4,2.3 -0.2,3.3c0.3,1.6 1.8,1.9 12.3,2.3l12,0.5l0.3,28.2c0.2,27.3 0.3,28.2 2.3,28.8c4.6,1.5 4.9,0.1 5.1,-29.4l0.3,-27.6l24,-1l0,-6l-27.8,-0.3c-23.6,-0.2 -27.8,0 -28.3,1.2Z" style="fill:#069;fill-rule:nonzero;"/><path d="M926.2,17.3c-0.9,1.1 -1.2,9.1 -1,31.7c0.3,27.6 0.5,30.4 2.1,31.4c1.2,0.8 2.2,0.8 3.5,0c1.3,-0.9 1.8,-2.8 2,-8.8l0.3,-7.6l11.3,0c19.7,0 28.6,-2.9 34.3,-11.3c6.2,-9.2 5.3,-20.7 -2.2,-28.2c-6.5,-6.6 -11.1,-7.7 -31.5,-8.3c-14.6,-0.3 -17.8,-0.1 -18.8,1.1Zm30.7,6.7c12,2 17.1,6.2 17.8,14.8c0.5,6 -2.6,11.7 -8,14.5c-4.1,2.1 -14.6,3.6 -26.4,3.6l-7.3,0.1l0,-34l8.8,0c4.8,0 11.6,0.5 15.1,1Z" style="fill:#069;fill-rule:nonzero;"/><path d="M1069.7,16.7c-0.4,0.3 -0.7,14.5 -0.7,31.5l0,30.8l2.6,1c3.5,1.4 48,1.3 50.5,0c2.1,-1.2 2.5,-4 0.7,-5.8c-0.9,-0.9 -7.5,-1.2 -23.5,-1.2l-22.3,0l0,-26.9c0,-14.8 -0.3,-27.6 -0.6,-28.5c-0.6,-1.6 -5.4,-2.2 -6.7,-0.9Z" style="fill:#069;fill-rule:nonzero;"/><path d="M1131.7,16.6c-0.4,0.4 -0.7,14.6 -0.7,31.4c0,32.9 0.2,34 5,32.5c2,-0.6 2,-1.1 1.8,-32.3l-0.3,-31.7l-2.5,-0.3c-1.4,-0.2 -2.9,0 -3.3,0.4Z" style="fill:#069;fill-rule:nonzero;"/><path d="M1144.4,17.4c-0.3,0.8 -0.4,2.3 -0.2,3.3c0.3,1.6 1.8,1.9 12.3,2.3l12,0.5l0.3,28.2c0.2,26.4 0.3,28.2 2.1,28.8c1,0.3 2.5,0.3 3.4,-0.1c1.5,-0.5 1.7,-3.8 1.9,-28.8l0.3,-28.1l24,-1l0,-6l-27.8,-0.3c-23.6,-0.2 -27.8,0 -28.3,1.2Z" style="fill:#069;fill-rule:nonzero;"/><path d="M1414,48c0,28.8 0.2,32.1 1.6,32.7c0.9,0.3 2.4,0.2 3.3,-0.4c1.4,-0.9 1.6,-4.6 1.6,-32.4l0,-31.4l-3.2,-0.3l-3.3,-0.3l0,32.1Z" style="fill:#069;fill-rule:nonzero;"/><path d="M1820.7,16.6c-0.4,0.4 -0.7,14.6 -0.7,31.4c0,32.9 0.2,34 5,32.5c2,-0.6 2,-1.1 1.8,-32.3l-0.3,-31.7l-2.5,-0.3c-1.4,-0.2 -2.9,0 -3.3,0.4Z" style="fill:#069;fill-rule:nonzero;"/><path d="M2073.7,16.6c-0.4,0.4 -0.7,14.6 -0.7,31.6l0,30.8l2.6,1c1.4,0.6 12.6,1 24.9,1c23,0 27.5,-0.6 27.5,-3.8c0,-3.9 -1.5,-4.2 -25.2,-4.2l-22.8,0l-0.2,-28.3l-0.3,-28.2l-2.5,-0.3c-1.4,-0.2 -2.9,0 -3.3,0.4Z" style="fill:#069;fill-rule:nonzero;"/><rect x="488" y="132" width="1531" height="27" style="fill:#069;fill-rule:nonzero;"/><path d="M879,261c-7.8,1 -21.2,5.5 -28.4,9.4c-3.3,1.8 -16.9,8.9 -30.1,15.6c-13.2,6.7 -31,15.9 -39.5,20.3c-8.5,4.3 -23.4,12 -33,16.9c-9.6,5 -23.8,12.3 -31.5,16.3c-7.7,4 -22.1,11.4 -32,16.5c-9.9,5.1 -25.2,13 -34,17.5c-8.8,4.6 -54.2,28 -101,52c-82.2,42.3 -101.9,52.4 -136,70c-8.8,4.5 -25,12.9 -36,18.5c-52.2,26.9 -50.3,25.8 -69.5,38.6c-79.2,52.7 -97.4,114.8 -50.8,173.6c13.7,17.3 36.4,36.5 60.5,51.2c9.4,5.7 15.8,8.9 103.3,51.4c27.8,13.4 59.3,28.7 70,34c10.7,5.2 26.7,12.9 35.5,17.2c8.8,4.3 25,12.1 36,17.5c42.4,20.7 59.5,29 74,36c8.3,4 24.9,12.1 37,18c12.1,5.9 29.7,14.4 39,19c9.4,4.5 26.5,12.9 38,18.5c11.6,5.6 35.6,17.3 53.5,26c17.9,8.7 41.3,20 52,25.2c24.3,11.9 33.7,15.5 47,18.1l10.5,2.2l332,0.3c251.9,0.3 335.6,0 347,-0.9c14.8,-1.1 15.2,-1.2 27,-6.4c11.5,-5 66.3,-32.3 405.5,-201.2c167.1,-83.2 160.5,-79.6 179.8,-99.5c24.3,-24.9 37.4,-47.2 42.8,-72.7c1.8,-8.7 1.8,-28.1 -0.1,-37c-7.6,-36.3 -33.3,-68.5 -77.5,-97.3c-13,-8.5 -24.7,-14.4 -70,-35.6c-3.6,-1.6 -13.2,-6.2 -21.5,-10.2c-8.2,-3.9 -18.4,-8.8 -22.5,-10.7c-4.1,-2 -16.3,-7.7 -27,-12.8c-10.7,-5.1 -29.4,-14 -41.5,-19.7c-12.1,-5.8 -24.9,-11.9 -28.5,-13.6c-3.6,-1.6 -13.2,-6.2 -21.5,-10.2c-8.2,-4 -17.8,-8.5 -21.3,-10.1c-5.8,-2.7 -35.1,-16.6 -59.2,-28.1c-9.9,-4.8 -20.6,-9.8 -36.5,-17.3c-3.8,-1.8 -14.2,-6.8 -23,-11c-8.8,-4.2 -18.9,-9.1 -22.5,-10.7c-3.6,-1.7 -9.6,-4.5 -13.5,-6.3c-3.8,-1.8 -13.1,-6.2 -20.5,-9.8c-7.4,-3.5 -17.3,-8.3 -22,-10.5c-4.7,-2.2 -13.7,-6.4 -20,-9.4c-6.3,-3.1 -14.9,-7.1 -19,-9.1c-4.1,-1.9 -14.2,-6.8 -22.5,-10.7c-8.2,-4 -18.4,-8.8 -22.5,-10.7c-4.1,-1.9 -15.8,-7.4 -26,-12.3c-22.2,-10.5 -31.5,-13.9 -43.5,-15.6c-7.3,-1.1 -72.9,-1.3 -345,-1.2c-184.8,0 -338.5,0.4 -341.5,0.8Zm292.6,30.9c-0.3,0.5 -3.8,2.8 -7.8,5.1c-23.2,13.7 -63.2,37.5 -75.1,44.6c-7.5,4.6 -13.9,8.4 -14.1,8.4c-0.3,0 -4.7,2.6 -9.9,5.9c-5.2,3.2 -9.8,6 -10.3,6.2c-1,0.4 -26.9,15.8 -50.4,29.9c-8,4.8 -26.9,16 -42,25c-15.1,8.9 -32.9,19.5 -39.5,23.5c-6.6,4 -13.6,8.1 -15.5,9.2c-1.9,1.1 -8.8,5.2 -15.4,9.2c-6.5,3.9 -12,7.1 -12.2,7.1c-0.1,0 -4.9,2.9 -10.6,6.4c-9.8,6 -43,25.8 -47.3,28.2c-1.1,0.6 -6.7,3.9 -12.5,7.4c-5.8,3.5 -11.9,7.1 -13.6,8c-1.7,1 -7.1,4.2 -12,7.2c-12.6,7.7 -43.7,26.2 -44.9,26.7c-3.4,1.5 -25.5,16.1 -38.7,25.7c-17.7,12.9 -26.8,22 -36.2,36.4c-6.1,9.3 -7.4,11.6 -11.5,21.3c-9.5,22.1 -8.5,47.9 2.6,70.2c10.7,21.4 32,43.5 56.1,57.9c20.2,12.2 121.9,57.6 155.8,69.6c57.1,20.3 90,28.7 125.4,32.2c17.3,1.7 60.3,1.7 79,0c31.3,-2.9 66,-8.9 93,-16.3c14,-3.9 18,-5.4 46,-17.2c68.6,-29.1 138.3,-72.6 180.4,-112.7c11.1,-10.5 31.4,-32.7 37.5,-41c26.1,-35.1 30,-76.1 11.1,-114.6c-9.7,-19.7 -34.8,-45.9 -66.5,-69.6c-6.6,-5 -11.9,-9.3 -11.8,-9.7c0.7,-2.1 41.7,-5.4 68.3,-5.3c41.3,0 65.9,3.7 103.4,15.2c51.1,15.8 89.8,32.1 169.9,71.4c27.1,13.3 35,17.6 43.2,23.8c17.7,13.3 29.7,26.9 37.1,42.3c8.3,17 8.7,33.3 1.4,50.8c-7.1,17.1 -18.8,31.2 -36.5,44.1c-7.1,5.2 -14.1,10.3 -15.5,11.3c-4.5,3.3 -60,37 -72.5,43.9c-3.1,1.7 -28.6,16.8 -42,24.9c-13.9,8.3 -46.1,27.4 -49,29.1c-1.1,0.6 -11.7,6.9 -23.5,13.9c-11.8,7 -24.2,14.4 -27.5,16.3c-3.3,1.9 -10.3,6.1 -15.5,9.2c-15.4,9.2 -41.5,24.8 -45.1,26.8c-1.9,1.1 -9,5.3 -15.9,9.4c-6.9,4.1 -24.9,14.8 -40,23.8c-15.1,8.9 -29.2,17.3 -31.2,18.6c-2.1,1.3 -4,2.4 -4.2,2.4c-0.3,0 -5.1,2.8 -10.8,6.3c-5.7,3.5 -18.2,11 -27.8,16.7c-18.6,11 -29.4,17.4 -53.5,31.7c-8.2,5 -19.4,11.5 -24.7,14.6l-9.7,5.7l-162,0c-111.2,0 -163.7,-0.3 -167.3,-1.1c-13.3,-2.7 -16.1,-4 -135.8,-62.2c-11.3,-5.4 -27.7,-13.4 -36.5,-17.7c-8.8,-4.3 -25.4,-12.4 -37,-18c-11.5,-5.6 -28.2,-13.7 -37,-18c-8.8,-4.3 -25.9,-12.6 -38,-18.5c-12.1,-5.9 -27.4,-13.3 -34,-16.5c-6.6,-3.2 -21.2,-10.3 -32.5,-15.8c-11.3,-5.5 -29.5,-14.3 -40.5,-19.7c-11,-5.3 -28.5,-13.9 -39,-19c-10.4,-5.1 -26.9,-13.1 -36.5,-17.8c-39.5,-19.1 -53.7,-26.1 -79,-38.6c-27.1,-13.4 -29.2,-14.5 -37,-19.6c-41,-27 -64,-57.6 -64,-85c0,-25.7 19,-52.3 56.5,-79.2c15,-10.8 21.1,-14.2 66,-37.3c9.9,-5.1 24.8,-12.7 33,-17c8.3,-4.2 23.6,-12.1 34,-17.5c10.5,-5.4 26.4,-13.6 35.5,-18.3c9.1,-4.6 23.3,-11.9 31.5,-16.2c24.4,-12.6 57.2,-29.5 105,-54c11,-5.6 26.8,-13.7 35,-18c14,-7.2 24.8,-12.8 68,-35c9.4,-4.8 24.4,-12.6 33.5,-17.3c19.7,-10.1 42.3,-21.7 69.5,-35.7c11,-5.7 24.5,-12.6 30,-15.5c9.5,-5 17,-7.9 22.5,-8.8c5.1,-0.9 289.1,-0.7 288.6,0.2Zm398.9,2.3c4.4,1.5 20.6,8.8 36,16.1c31.5,15 38.7,18.5 53,25.2c21.9,10.4 66.7,31.6 79,37.5c7.2,3.4 17.1,8.1 22,10.5c5,2.3 14.4,6.8 21,10c6.6,3.1 15.2,7.2 19,9c3.9,1.8 12.9,6.1 20,9.5c7.2,3.4 16.4,7.8 20.5,9.7c8.6,4 41,19.4 61,29c7.4,3.6 16,7.6 19,9c3,1.4 15.9,7.5 28.5,13.6c12.7,6 30.4,14.5 39.5,18.7c15.2,7.2 24.6,11.6 50,23.7c5.2,2.5 14.1,6.7 19.8,9.4c5.6,2.7 15,7.2 21,10c5.9,2.8 19.7,9.4 30.7,14.6c31.6,15 35.2,17 53.6,29.8c14.1,9.9 33.5,29.2 41,41c19.9,31 16.5,64.3 -10,96.5c-10.9,13.4 -27.3,28.3 -37.1,33.9c-3.3,1.9 -94.1,47.2 -216.5,108.1c-55,27.4 -151.7,75.5 -214.9,106.9c-63.2,31.5 -117.6,58.4 -121,59.9l-6.1,2.7l-153,0.2c-105.1,0.2 -152.5,0 -151.5,-0.7c0.8,-0.6 9.2,-5.6 18.5,-11.2c9.4,-5.6 28.7,-17.1 43,-25.6c14.3,-8.5 27.6,-16.4 29.5,-17.5c1.9,-1 6.7,-3.8 10.5,-6.2c3.9,-2.3 15.6,-9.3 26,-15.5c10.5,-6.2 22.6,-13.4 27,-16c4.4,-2.6 9.6,-5.7 11.5,-6.7c1.9,-1.1 15,-8.9 29,-17.3c14,-8.4 26.9,-16 28.6,-17c1.7,-1 6.4,-3.8 10.5,-6.2c4.1,-2.5 16.4,-9.8 27.4,-16.3c11,-6.5 24.3,-14.3 29.5,-17.5c5.2,-3.1 17.4,-10.3 27,-16c9.6,-5.7 22.1,-13.2 27.8,-16.6c5.7,-3.5 10.5,-6.4 10.8,-6.4c0.2,0 2.1,-1.1 4.2,-2.4c2,-1.3 11.6,-7 21.2,-12.6c9.6,-5.7 20.2,-11.9 23.5,-14c3.3,-2.1 10.5,-6.3 16,-9.5c23.5,-13.6 50.9,-32.5 61.8,-42.4c15,-13.9 26.9,-32.3 34,-52.4c3.1,-9 3.2,-9.6 3.2,-26.7c0,-17.2 -0.1,-17.7 -3.2,-26.8c-9.3,-26.6 -30,-51 -59.7,-70.6c-10.1,-6.7 -77.2,-39.4 -116.1,-56.6c-2.7,-1.2 -6.6,-2.9 -8.5,-3.7c-37.5,-16.7 -93.4,-35.8 -122,-41.8c-45.7,-9.6 -106.4,-9.6 -162.1,0c-13.1,2.3 -39.5,8.1 -49.6,11.1c-26.6,7.7 -88.8,36.4 -121.7,56.1c-4.9,2.9 -9,5.3 -9.2,5.3c-0.9,0 -23.9,14.9 -34.7,22.5c-19.8,13.8 -20.7,14.4 -33.7,25.1c-17.1,13.9 -24.9,21.2 -42.3,39.9c-21.7,23.3 -31.8,39.5 -38.4,61.5c-2.6,8.9 -2.8,10.6 -2.8,28c0,17.1 0.2,19.2 2.7,28.3c3,10.7 7.7,21.5 13.5,31c9.4,15.5 39.8,46.5 61.5,62.6c3.2,2.4 5.7,4.5 5.5,4.7c-0.8,0.9 -26.6,3.4 -44.6,4.5c-23,1.3 -48,0.2 -72,-3.2c-16.8,-2.4 -26.7,-4.5 -43.6,-9.5c-50.5,-14.9 -80.5,-26.4 -144.5,-55.3c-30.3,-13.7 -29.1,-13.2 -49.5,-23.2c-19.5,-9.5 -28.1,-15.4 -40.8,-27.8c-19.8,-19.2 -28,-37.1 -26.3,-57.3c1,-12.3 5.3,-23 14.4,-35.8c8.7,-12.3 14.9,-17.8 41.2,-36.7c2.5,-1.8 14.4,-9.2 26.5,-16.4c12.1,-7.3 27.1,-16.3 33.3,-20.1c6.1,-3.7 11.4,-6.8 11.6,-6.8c0.3,0 5.1,-2.9 10.8,-6.3c5.7,-3.5 19.3,-11.7 30.3,-18.2c11,-6.5 29,-17.2 40,-23.8c11,-6.6 21.5,-12.9 23.4,-13.9c3.2,-1.8 10.1,-5.9 50.1,-29.8c18.8,-11.3 39.2,-23.4 40.5,-24c0.6,-0.3 18.8,-11.1 40.5,-24.1c21.7,-13 41.1,-24.6 43,-25.7c1.9,-1.1 15,-8.8 29,-17.2c14,-8.4 26.9,-16.1 28.5,-17c1.7,-0.9 7.7,-4.5 13.5,-8c5.8,-3.5 11.9,-7.1 13.5,-8c1.7,-1 14.5,-8.6 28.5,-17c14,-8.4 27.1,-16.1 29,-17.2c1.9,-1.1 3.9,-2.4 4.5,-2.9c0.6,-0.6 66.9,-0.8 169,-0.7l168,0.3l8,2.7Zm-245.7,198.5c6.5,3.7 24.4,15.7 31.7,21.1c18.1,13.7 40.6,34.9 50.2,47.3c14.9,19.3 20.3,45.8 14.2,69.4c-2,7.8 -10.8,24 -17.6,32.5c-8.6,10.7 -38.1,40.5 -49.3,49.7c-39.8,32.8 -91.2,63.6 -148,88.8c-26.2,11.6 -38.1,16 -55.4,20.5c-13.1,3.4 -15.9,3.9 -17.8,2.9c-2.1,-1.1 -7.7,-4.9 -20.8,-14c-15.2,-10.6 -41.8,-35.4 -54.1,-50.5c-7.3,-8.9 -12.8,-19.2 -16.5,-30.4c-2.5,-7.8 -2.7,-9.8 -2.8,-24c0,-14.4 0.2,-16.1 2.8,-23.5c6.5,-19 14.7,-30.3 40.9,-56.9c28.4,-28.6 57.4,-50.8 99.7,-75.8c37.1,-22 98,-50.1 123,-56.7c4.7,-1.3 9,-2.5 9.5,-2.6c2.9,-0.9 6.1,-0.2 10.3,2.2Z" style="fill:#069;fill-rule:nonzero;"/><rect x="488" y="1172" width="1531" height="27" style="fill:#069;fill-rule:nonzero;"/><path d="M916.4,1282.5c-48.1,5.5 -82.9,28.5 -90.9,60c-0.8,3.2 -1.5,10.1 -1.5,15.2c0,23.8 12.7,42.2 37.5,54.2c20.6,10 35.6,13.2 86,18.6c33.1,3.5 46,6.2 58.5,12.2c9.8,4.7 15,9.1 18.5,15.5c2.6,4.7 2.9,6.3 2.9,13.8c0,7.2 -0.4,9.3 -2.6,13.5c-6.9,13.1 -23.6,23.4 -45.8,28.2c-6.7,1.4 -12.9,1.8 -29.5,1.8c-18.4,0 -22.3,-0.3 -31.5,-2.4c-19.5,-4.3 -33,-10.5 -48.3,-22.3c-7.7,-5.9 -15.9,-6.3 -21.9,-0.9c-2.6,2.3 -3.2,3.7 -3.6,8.2c-0.4,4.9 -0.1,5.8 2.7,9.3c6,7.5 22.4,17.9 38,24.1c21.6,8.6 44.4,12.1 72.7,11.2c19.1,-0.6 30.8,-2.4 43.9,-6.9c16.3,-5.6 27.7,-12.3 37.8,-22.2c10.7,-10.6 15.6,-20 17.8,-34.4c4.3,-27.9 -11.9,-52.1 -42.6,-63.7c-17.4,-6.5 -25.8,-7.9 -94,-15.6c-13.4,-1.5 -25.8,-4.5 -36.8,-8.9c-20.1,-8.1 -28.6,-17.5 -29.5,-33c-0.6,-10.9 2.1,-17.5 10.7,-26c16.9,-16.8 46.3,-24.9 86.1,-23.7c42,1.3 70.1,10.9 93.9,32.2c8,7.2 10.4,8.5 15.8,8.5c8.8,0 13.8,-5.6 13.1,-14.6c-0.5,-6.3 -3.1,-9.6 -14.7,-18.9c-29.1,-23.5 -66.7,-34.7 -114.9,-34.4c-9.2,0.1 -21.7,0.7 -27.8,1.4Z" style="fill:#069;fill-rule:nonzero;"/><path d="M1215,1282.5c-26.7,3.3 -55.1,13.9 -77,28.9c-10.6,7.2 -27.4,24.3 -34.4,34.9c-14.8,22.6 -21.7,47.1 -20.2,72.2c0.7,13.6 2.3,21.2 7.1,34c12.8,34.3 42.4,62.9 80,77.4c26.9,10.3 47.1,13.7 75.4,12.8c17.6,-0.5 28.9,-2.2 43.6,-6.3c18.1,-5.1 33.6,-11.9 48.1,-21.2c10.7,-6.8 13.5,-10 14.1,-15.5c1,-8.9 -4.6,-14.9 -13.9,-14.9c-4.3,0 -5.9,0.6 -13.5,5.8c-15.8,10.6 -33.8,18.1 -53.9,22.6c-8.4,1.8 -13,2.2 -30.4,2.2c-17.6,0 -21.9,-0.3 -30.4,-2.2c-29.5,-6.6 -52.7,-19 -70.8,-38c-8.8,-9.3 -12.7,-14.8 -17.3,-24.5c-6.9,-14.4 -9.8,-33.5 -7.6,-49.7c6.1,-45.1 43.3,-79.4 98.6,-90.7c13.4,-2.7 44.4,-2.5 57.5,0.5c18.9,4.2 35.3,11.3 53.4,23.1c6.8,4.4 8.5,5.1 12.9,5.1c6.8,0 11.1,-2.8 13.3,-8.5c1.6,-4.3 1.6,-4.8 -0.1,-9.1c-1.4,-3.6 -3.1,-5.6 -8.4,-9.5c-18.9,-14 -52.9,-26.8 -79.3,-29.8c-12.4,-1.4 -33.4,-1.2 -46.8,0.4Z" style="fill:#069;fill-rule:nonzero;"/><path d="M1471.9,1282.5c-19.5,2.4 -46.5,11.1 -62.9,20.3c-33.4,18.8 -57.5,47.8 -66.6,80.3c-2.1,7.7 -2.7,12.3 -3.1,25c-0.5,13.6 -0.2,17 1.7,26c4.7,22.1 15,41.3 31.5,58.7c30.5,32.3 74.6,50.1 124,50.2c26.8,0 45.4,-3.4 70,-12.7c26.3,-10 53.5,-31 68.3,-52.6c7.3,-10.5 14.6,-26.2 17.9,-38.2c2.5,-9.1 2.7,-11.5 2.7,-27.5c0,-15.9 -0.2,-18.4 -2.7,-27.5c-12.5,-45.7 -51.3,-81.6 -104.9,-97.1c-21.1,-6 -50.6,-7.9 -75.9,-4.9Zm56.5,28.4c34.1,7 64.6,25.9 81.4,50.4c4.7,6.8 10.8,19.6 13.2,27.7c3.4,11.8 3.9,29.3 1,41.6c-2.5,10.9 -9.5,25.9 -16.4,35.1c-18.1,23.9 -48.1,41.9 -80.1,47.9c-14.8,2.8 -49.1,2.6 -62.5,-0.4c-48.1,-10.6 -85.3,-43.3 -94.1,-82.6c-9.3,-41.5 13.3,-83.3 57.1,-106c16.1,-8.3 24.4,-10.9 51,-16c6.4,-1.2 39.8,0.4 49.4,2.3Z" style="fill:#069;fill-rule:nonzero;"/><path d="M1687.9,1283.4c-1.4,0.8 -3.3,3 -4.3,4.8c-1.6,3.1 -1.7,10.8 -1.4,124.2l0.3,120.8l3.5,2.9c6.1,5.1 13.9,5.1 20,0l3.5,-2.9l0.3,-100.1c0.2,-85.1 0.4,-100.1 1.6,-100.1c0.8,0 1.6,0.4 1.8,0.9c0.2,0.5 5.7,6.6 12.3,13.6c6.6,7 12.7,13.6 13.5,14.5c1.7,2 16.7,18.2 38,41c23.8,25.5 24.4,26 31.2,26c3.3,0 11.2,-4.1 12.5,-6.4c0.4,-0.8 4,-4.7 7.8,-8.8c3.9,-4.1 11.1,-11.9 16,-17.3c5,-5.5 12.2,-13.4 16,-17.5c3.9,-4.2 11.7,-12.7 17.5,-19c5.8,-6.2 12.9,-14 15.9,-17.2c3,-3.2 6.1,-6.8 6.8,-7.8c0.8,-1.1 1.8,-2 2.4,-2c0.5,0 0.9,37.2 0.9,97.9c0,56 0.4,99 0.9,100.3c2.3,5.9 9.7,9.7 16.6,8.4c2,-0.4 5.3,-2.2 7.3,-4.1l3.7,-3.3l0.3,-120.5l0.2,-120.4l-2.3,-3.4c-1.2,-1.8 -3.4,-3.9 -4.7,-4.6c-2.6,-1.3 -10,-1.7 -13.8,-0.7c-1.2,0.4 -13.4,12.9 -26.9,27.8c-13.6,14.9 -25.2,27.6 -25.8,28.2c-0.5,0.6 -5,5.5 -10,10.9c-4.9,5.4 -9.7,10.6 -10.5,11.5c-1.3,1.4 -17.9,19.7 -20.5,22.6c-8.9,9.9 -10.8,11.5 -12,10.2c-1.1,-1.2 -10.2,-11.2 -20.4,-22.3c-4.3,-4.6 -10.2,-11 -26.5,-28.5c-3.4,-3.6 -10.6,-11.5 -16.1,-17.5c-15.6,-17 -21.3,-23.1 -31.1,-33.4l-9.1,-9.5l-6.4,-0.3c-4.3,-0.2 -7.3,0.1 -9,1.1Z" style="fill:#069;fill-rule:nonzero;"/><path d="M591,1286.9c-1.9,1 -4.5,3.6 -5.7,5.7l-2.3,3.9l0,144.5l-8.7,0c-13,0.1 -17.1,1.2 -21,5.4c-2.7,3 -3.3,4.4 -3.3,8.2c0,5.5 2.7,10.5 6.7,12.4c1.6,0.7 8.1,1.5 14.5,1.8l11.7,0.5l0.3,30.3c0.3,29 0.4,30.4 2.4,33.1c1.2,1.5 3.6,3.7 5.5,4.8c3.3,2 5.4,2 102.3,2.3c98.1,0.2 98.9,0.2 103.2,-1.8c9.5,-4.7 9.8,-18.2 0.4,-23.2c-3.3,-1.7 -8.1,-1.8 -94.2,-1.8l-90.8,0l0,-44l93.3,-0.2c102.9,-0.3 96.9,0.1 101.4,-6.7c4.3,-6.4 2,-15 -4.9,-18.8c-3.1,-1.7 -9,-1.8 -96.5,-2.1l-93.3,-0.2l0,-130l191.7,0l3.4,-2.3c6.8,-4.5 7.4,-14.4 1.4,-20.4l-3.3,-3.3l-105.4,0c-100.6,0 -105.5,0.1 -108.8,1.9Z" style="fill:#069;fill-rule:nonzero;"/></g></svg>