<?xml version="1.0" encoding="UTF-8" standalone="no"?><!DOCTYPE svg PUBLIC "-//W3C//DTD SVG 1.1//EN" "http://www.w3.org/Graphics/SVG/1.1/DTD/svg11.dtd"><svg width="100%" height="100%" viewBox="0 0 805 805" version="1.1" xmlns="http://www.w3.org/2000/svg" xmlns:xlink="http://www.w3.org/1999/xlink" xml:space="preserve" xmlns:serif="http://www.serif.com/" style="fill-rule:evenodd;clip-rule:evenodd;stroke-linejoin:round;stroke-miterlimit:2;"><g><rect x="0" y="1.021" width="803.146" height="803.146" style="fill:#fff;"/><path d="M517.408,675.733c0.983,1.312 1.475,2.692 1.475,4.15c0,7.054 -12.354,12.8 -27.583,12.8c-15.229,0 -27.65,-5.746 -27.65,-12.8c0,-11.35 24.35,-13.825 30.313,-13.096c6.671,0.725 12.567,2.033 18.812,5.237l0,-6.037c-3.017,-1.167 -6.808,-2.254 -9.896,-2.767c-13.333,-1.671 -31.304,-1.671 -43.021,8.437c-0.354,0.217 -0.775,0.512 -1.262,0.946c-6.038,5.237 -5.338,10.117 -3.583,14.333c1.337,3.2 7.092,7.129 9.967,8.95l0,0.071c0.075,0 0.213,0.071 0.283,0.146c0.842,0.508 1.329,0.8 1.329,0.8l0,-0.142c12.212,6.179 23.583,5.379 36.146,4.142c14.738,-2.621 25.479,-10.108 25.479,-18.842c0,-6.621 -6.454,-11.637 -10.808,-14.037l0,7.708Zm-182.758,-253.596l0,18.621c2.175,-0.217 4.35,-0.362 6.667,-0.362c2.033,0 4.071,0.071 6.104,0.292l0.354,-19.425l-13.125,0.875Zm-2.529,15.637l0,-15.35c-2.662,1.675 -16.142,11.425 -16.071,21.896c-1.613,15.571 13.125,26.408 16.917,27.5c14.879,3.783 66.742,21.388 69.55,43.65c3.65,38.704 -35.233,60.525 -61.55,60.671l-1.967,22.042c0,0 8.421,17.388 35.867,27.138c17.054,3.638 27.229,2.621 33.617,0.437c6.879,-2.767 16.633,-9.096 21.196,-16.15c0.842,-2.983 1.404,-5.821 1.892,-8.075c-0.35,-17.025 -12.279,-45.763 -22.879,-69.983c2.317,-11.858 1.475,-23.571 -1.546,-30.846c-3.787,-7.787 -5.192,-11.425 -17.471,-20.371c-17.967,-13.096 -51.375,-20.804 -58.604,-28.808c-2.808,-3.854 -2.387,-12.296 1.05,-13.75Zm99.312,-96.1c2.875,3.346 5.263,6.55 7.371,10.183c17.404,5.021 32.912,10.696 46.25,15.571c-0.283,-35.354 -5.688,-71.292 -21.196,-105.412l-32.425,79.658Zm-3.437,272.588c-4.775,6.108 -13.338,10.767 -19.792,13.529c-42.533,11.058 -70.675,-24.875 -71.379,-28.733c-0.704,-3.637 1.546,-19.787 1.967,-22.7c-1.262,-0.071 -2.879,0 -4.142,-0.071c-0.142,2.042 -2.246,21.242 -2.246,23.138c6.667,11.708 9.262,15.129 24.425,24.733c14.175,7.346 35.229,11.854 52.075,6.329c0.071,0 2.454,-1.092 0.279,-0.075c7.933,-3.492 10.879,-5.821 13.054,-8.146c2.458,-2.258 5.896,-7.496 5.758,-8.004Zm74.108,46.775c3.233,0.513 6.321,1.313 9.196,2.258l1.337,-1.021l0,0.075l-0.075,0l0,-36.738l-0.067,0l0,-0.15l-23.092,0l12.7,35.575Zm18.95,6.767c2.6,1.675 4.846,3.567 6.6,5.675l4.704,-5.675l-11.304,0Zm9.687,10.913c0.563,1.529 0.913,3.2 0.913,4.875c0,11.858 -15.3,21.679 -35.021,23.204l-15.438,12.079l-25.271,0l0.913,12.875l-6.175,10.696l-47.583,-0.075l-2.667,-4.875l-47.796,-0.292l-2.879,-10.038l-25.546,-0.871l-15.579,-8.296l-0.563,-10.908l1.263,-12.004l-31.721,-0.075l-6.95,-12.292l-1.963,-3.058l0,-12.367l5.258,-14.983l-19.296,-0.658c-4.142,5.675 -13.125,10.329 -30.671,10.4c-29.688,-0.867 -34.671,-16.367 -31.092,-26.842c2.667,-5.454 11.858,-7.204 13.754,-8.075l0,-189.579l18.108,-24.154l3.65,1.092l18.108,24.154l0,153.279l4.979,0.071c-2.804,-6.325 -5.471,-12.875 -7.929,-19.571l-14.879,15.862l-0.208,0.146l1.471,3.271l11.933,0.146l0,-149.929l-16.704,-22.483l-14.808,18.625l0,188.487c9.404,-1.092 18.317,-0.725 27.583,0.508l-1.617,-9.817l16.987,-18.987l-6.808,-0.217c0,-0.075 0,27.717 0,30.917c-1.267,-0.221 -3.3,-0.583 -4.633,-0.729l0,-30.333l-22.879,-0.654l-1.192,-3.275l-0.562,-1.75l-4.563,-12.8l0.208,0.146l-0.912,-2.767l3.3,-11.271l18.6,-23.938c-0.35,-1.238 -0.633,-2.546 -0.983,-3.858l-31.442,-2.037l-2.108,-4.217l-0.629,0.075l-2.95,-15.792l5.267,-8.871l21.896,-22.842c-0.558,-4.95 -1.054,-9.971 -1.542,-15.062l-18.812,-11.567l-0.492,-0.071l-8.7,-3.35l0,-14.404l7.858,-6.329l7.933,-3.925l10.879,-13.971c0,-1.671 0.137,-4.142 0.208,-5.817l-24.142,2.4c0,0 7.858,-6.546 20.492,-15.712l-15.158,-8.658l-6.246,-6.546l1.683,-17.825l9.262,-2.037l19.021,-0.288c0.912,-5.821 1.967,-11.571 3.158,-17.242l0,44.3c1.475,-1.017 2.946,-2.033 4.421,-3.054l0,-27.933l15.442,-2.329l0,20.296c1.475,-0.946 2.946,-1.817 4.492,-2.763l0,-18.187l13.475,-1.967l0,12.371c1.471,-0.875 2.95,-1.675 4.492,-2.475l0,-10.621l17.967,-2.621l0,4.292c1.475,-0.654 2.95,-1.308 4.492,-1.963l0,-2.983l12.071,-1.892c9.125,-3.346 18.25,-5.892 27.021,-7.421l0,-19.788c-2.175,-0.292 -5.192,-1.162 -5.825,-3.563c-1.404,-4.95 -0.979,-8.875 2.317,-12.296c-0.633,-2.692 -3.65,-4.729 -6.246,-5.821l0,-20.733l16.633,-3.854l5.475,16.004l5.825,0.071l-5.475,-17.092l4.421,-0.946l19.092,58.196c7.438,0.946 14.808,0.513 22.104,2.546l2.463,-4.654c-6.529,-0.8 -12.988,-1.892 -19.513,-1.237l-18.392,-56.162l5.054,-1.233l3.513,11.275l52.987,-11.712l6.175,-15.058l16.142,-4.292l-36.425,94.787c2.175,0.438 4.421,0.95 6.667,1.383l36.496,-97.771l7.513,-1.821c1.963,6.329 1.542,10.912 -1.687,18.187l-33.267,83.588c1.896,0.437 3.863,0.946 5.754,1.454l34.604,-86.642c2.737,-6.329 2.454,-11.929 -0.283,-17.825l67.867,-16.004l19.021,10.912l28.146,-6.912l-29.267,-17.237l-221.571,54.412l0,-19.717l7.017,-1.888l0,-13.387l-13.754,-4.654l0,-5.75l13.754,5.021l0,-54.488l-13.754,-7.129l0,-5.821l13.754,7.35l0,-43.504l3.021,-1.6l0,-4.296l-16.775,-8.729l0,-5.746l16.775,8.95l0,-44.596l-16.987,-10.333l0,45.4l-22.458,8.437l0,-51.504l22.458,-10.696l59.025,36.662l0,43.287l3.929,2.254l0,-29.025l42.533,-13.967l36.287,22.042l0,63.946c-0.563,15.058 -14.813,20.95 -31.729,25.825l0,21.75l34.042,-8.583l0,-141.058l25.829,-9.675l24.492,14.475l0,-24.15l24.075,-8.658l0,0.8l30.808,16.442l0,141.129l16.917,10.696l0,23.063l-35.583,7.708l40.917,23.208l-0.421,18.479l-2.525,6.979l-21.758,21.608l-0.283,2.258l2.879,-0.292l31.933,14.913l0,27.792l-29.617,12.729l0,17.533l30.25,11.929l0,27.425l-29.196,5.604l0.138,20.004l26.321,20.079l-0.842,26.483l-29.479,-1.679l-4.142,15.788l22.95,27.279l-0.35,21.971l-4.071,3.858l-30.737,-2.692l0.067,7.567l20.917,33.171l0,6.983l-7.371,18.333l-33.825,0l11.437,32.733l0,5.242l-8.633,8.292Zm-43.725,28.154c-8.142,-0.508 -15.579,-2.475 -21.546,-5.312l0.492,4.804l-9.612,6.4l23.371,0l7.296,-5.892Zm-29.683,-35.938c2.383,-2.113 5.333,-4.004 8.771,-5.6l0,-237.671l5.192,-9.967l-0.071,0l4.213,-7.712l-0.071,0l12.496,-23.713l7.225,-1.454l22.321,37.829l0,125.708l0.137,0l0,0.071l25.129,16.879l0.421,0l0,4.8l-25.55,0l0,0.146l-0.137,0l0,47.579l-4.846,0l0,-192.35l-20.492,-34.917l-10.246,18.479l-5.546,9.967l-4.771,8.654l-0.983,215.262l0,12l-4.492,2.183c-2.175,5.242 -6.808,4.729 -10.175,9.971l1.475,3.854Zm38.317,5.383l-26.458,0c2.383,-4.221 11.021,-7.421 21.267,-7.421c12.071,0 21.896,4.363 21.896,9.821c0,5.387 -9.825,9.75 -21.896,9.75c-11.513,0 -20.988,-4 -21.829,-9.021l27.021,0l0,-3.129Zm21.688,-14.183l0.071,0l0,-36.521l0.137,0l0,-0.15l1.687,0l0.979,1.167l11.442,35.504l-14.317,0Zm-4.842,-42.342l0,-1.675l-15.092,-16.658c-3.087,6.329 -6.317,12.513 -9.754,18.333l24.846,0Zm-32.075,-202.533l4.35,-7.854l3.3,-0.292c0.279,1.821 0.421,5.167 0.35,7.496l-8,0.65Zm-8.142,-7.054l-4.563,7.929l-57.971,4.292c-1.121,7.929 -3.087,16.95 -5.617,22.842l49.55,142.517c0.071,0.146 0.071,0.217 0.071,0.362c-0.421,0.8 -0.908,1.671 -1.333,2.546c-1.475,0.871 -3.508,1.092 -4,-0.367l-48.283,-136.908c-2.246,3.712 -5.267,11.058 -8.846,13.533c-0.983,-1.821 -4.771,-7.279 -6.104,-8.438c11.367,-16.371 18.038,-44.233 12.704,-66.933l10.804,-1.017c1.404,8.438 2.6,14.913 1.475,24.296l62.112,-4.654Zm-245.854,221.521c-5.613,-0.075 -22.108,-0.296 -23.792,5.454c-1.754,5.821 6.95,12.004 22.529,11.858c6.387,0 18.179,-0.583 21.617,-7.858c1.896,-4.583 -4.842,-6.983 -7.858,-7.783l0.067,0.071c-4.558,-1.092 -9.754,-1.671 -12.562,-1.742Zm23.304,19.783l0.137,0c-0.562,0.437 -1.121,0.804 -1.754,1.167c-2.667,1.671 -5.121,2.325 -5.121,2.325c-4.917,1.675 -11.021,2.475 -18.883,2.475c-22.808,0.146 -30.879,-14.042 -27.229,-21.462c3.721,-7.417 23.092,-7.129 31.3,-6.979c2.458,0.071 6.6,0.363 10.25,1.017l0,0.071c6.383,1.021 14.458,2.692 16.071,9.021c0.208,0.583 0.35,1.162 0.35,1.75c0,0.575 -0.071,1.379 -0.208,2.108c-0.492,3.925 -2.596,6.692 -4.912,8.508Zm-43.375,-13.821l21.408,0l0,2.108l-21.058,0c1.683,2.983 8.354,5.75 18.387,5.75c7.437,-0.075 13.967,-1.967 16.917,-3.567l-0.142,-5.383c-4.213,-2.112 -12.771,-3.567 -15.65,-3.054c-4.704,-0.075 -18.317,-0.217 -19.796,3.708c0,0.146 -0.067,0.292 -0.067,0.437Zm50.671,8.729c0.283,-1.963 0.492,-4.579 0.492,-6.4c-0.071,-1.967 -1.192,-4.004 -2.383,-5.458l13.192,-10.112c3.229,5.312 6.596,10.329 10.037,15.133l-2.387,6.837l-18.95,0Zm-25.688,-114.867l-17.683,-0.292l-6.108,-0.508l3.721,-0.292l17.829,-9.021c0.7,3.417 1.471,6.763 2.242,10.113Zm-10.317,-67.658l-7.225,-3.492l7.017,1.021c0.071,0.796 0.138,1.6 0.208,2.471Zm89.133,224.792l-25.617,0.217l3.229,-5.817l9.404,-21.171c4.771,4.8 9.617,9.167 14.671,13.096l-1.688,13.675Zm39.583,31.937l-24.071,-0.583l3.717,-9.238l3.371,-21.971c4.983,2.404 11.792,4.729 16.983,6.258l0,25.533Zm17.9,10.55l29.054,-0.146l-1.896,-3.421l-2.104,-29.975c-5.263,0.95 -10.6,1.458 -16.075,1.458c-1.121,0 -2.313,-0.075 -3.433,-0.075l-2.6,25.463l-2.946,6.696Zm51.304,-37.613l19.721,0l-4.775,-13.096c-4.842,3.275 -9.825,6.112 -14.875,8.583l-0.071,4.513Zm21.967,6.112l-22.038,0l0.488,26.696l-1.754,9.458l27.863,0l5.337,-7.129l-2.667,-16.95l-5.333,-6.767l-1.896,-5.308Zm77.2,-124.838l24.212,0l20.567,32.738l-29.408,0l-5.617,-11.571l-9.754,-21.167Zm15.371,38.846l30.108,0l-5.896,14.625l-29.475,-0.437l5.263,-14.187Zm25.196,-114.138l-4.563,15.129l-28.075,-2.763c1.404,-7.642 2.671,-15.354 3.654,-23.283l28.563,10.842l0.421,0.075Zm-28.775,17.529l26.458,2.983l20.708,22.479l-28.288,-3.129l-18.879,-22.333Zm18.95,28.079l29.196,2.258l-0.842,16.804l-29.758,-2.767l1.404,-16.296Zm14.808,-109.992l0.142,19.933l-30.883,-3.275c0.354,-6.983 0.492,-14.112 0.492,-21.242l0,-3.2l30.25,7.783Zm-24.913,21.971l26.525,2.688l19.092,13.675l-25.758,-3.563l-19.858,-12.8Zm23.3,18.983l28,2.55l-0.417,18.258l-29.2,-3.421l1.617,-17.388Zm-333.725,-232.646l-1.967,0.217l-7.158,17.463l9.125,11.417l0,-29.096Zm0,61.833l-17.617,-5.817l-5.754,19.858l23.371,23.133l0,-37.175Zm23.158,101.05c-0.488,8.438 -0.35,15.275 -0.35,24.225c0,122.796 53.412,222.971 118.825,222.971c22.879,0 44.354,-12.367 62.604,-33.754c-0.071,0.071 -0.142,0.071 -0.213,0.071c1.263,-1.525 2.667,-3.2 3.787,-4.654c0.071,0 0.142,0 0.142,0.071c0.913,-1.233 1.825,-2.396 2.737,-3.638c0.208,-0.221 0.279,-0.362 0.279,-0.362c0.704,-0.946 1.408,-1.887 2.108,-2.908c-1.267,0.725 -2.596,1.383 -3.858,2.033c-0.283,0.367 -0.492,0.729 -0.775,1.096c-0.212,0.142 -0.354,0.292 -0.492,0.508c-0.629,1.379 -11.863,13.529 -11.863,13.529c0,0 0.071,0 0.213,0.075c-10.879,10.329 -26.738,20.15 -46.321,19.129c-38.883,-2.037 -62.254,-32.879 -65.412,-36.008c-3.088,-3.129 -1.192,-5.383 -1.192,-5.383l12.492,-29.679c-1.617,-0.437 -3.229,-1.021 -4.842,-1.604c-1.825,3.858 -10.25,22.192 -11.721,24.954c-1.683,3.129 -5.054,0.583 -5.054,0.583c0,0 -3.65,-5.167 -4.629,-7.421c-0.917,-2.254 0.979,-6.038 0.979,-6.038l9.546,-17.533c-1.475,-0.946 -2.946,-1.892 -4.35,-2.983l-9.687,19.496c-22.879,-42.921 -33.475,-100.754 -33.475,-150.442l59.021,-4.217c2.108,-2.404 7.092,-7.133 8.846,-8.075l-67.446,4.946l0,-20.154l-9.9,1.167Zm207.183,172.046c0.912,-2.037 1.896,-4.071 2.808,-6.183l-36.637,-105.629c4.846,-10.838 8.142,-22.842 9.546,-35.208l-8,0.433c-1.896,10.554 -5.192,21.1 -9.333,30.921l40.075,114.65c0.279,0.654 0.842,0.95 1.542,1.017Zm5.125,-11.637c15.579,-37.758 24.842,-84.971 24.842,-136.183c0,-1.021 -0.138,-1.454 -0.138,-2.4l-40.637,2.471c-1.263,15.933 -6.738,36.008 -13.262,47.287l29.196,88.825Zm-102.117,-480.5l0,36.592l7.229,4l0,-36.446l-7.229,-4.146Zm-3.788,34.263l0,-36.667l-7.792,-4.871l0,36.446l7.792,5.092Zm-12.146,-4.146l-0.137,-39.575l-8.917,-5.529l0,44.013l5.263,3.2l3.792,-2.108Zm-57.129,-53.325l-17.967,8.583l0,49.179l17.967,-6.767l0,-50.996Zm-22.458,10.696l-13.475,6.4l0,47.433l13.475,-5.021l0,-48.812Zm-17.967,8.583l-15.442,7.35l0,45.392l15.442,-5.746l0,-46.996Zm-15.442,58.342l0,48.525l15.442,-5.238l0,-49.104l-15.442,5.817Zm0,54.054l0,49.396l15.442,-3.783l0,-50.854l-15.442,5.242Zm0,54.854l0,46.775l15.442,-2.763l0,-47.796l-15.442,3.783Zm0,52.158l0,49.833l15.442,-2.258l0,-50.342l-15.442,2.767Zm0,94.354l0,4.725l-8.35,0.879c0,0 3.088,-2.112 8.35,-5.604Zm15.442,3.2l0,-13.021c1.404,-0.871 2.946,-1.746 4.492,-2.696l0,15.279l-4.492,0.438Zm17.967,-1.821l0,-21.675c1.471,-0.804 2.95,-1.604 4.492,-2.404l0,23.646l-4.492,0.433Zm22.458,-2.325l0,-18.113l4.492,1.746l0,15.929l-4.492,0.437Zm0,-25.825l0,-5.092c1.475,-0.658 2.95,-1.383 4.492,-2.037l0,8.871l-4.492,-1.742Zm26.95,23.133l0,-4.875l9.758,3.854l-9.758,1.021Zm0,-12.729l0,-26.554c0.563,-0.221 1.192,-0.438 1.829,-0.654l16.771,34.408l-18.6,-7.2Zm0,-40.45l0,-52.308l-22.458,4.004l0,51.65l22.458,-3.346Zm0,-57.688l0,-52.233l-22.458,5.454l0,50.779l22.458,-4Zm0,-57.692l0,-57.25l-22.458,7.563l0,55.146l22.458,-5.458Zm0,-62.854l0,-51.579l-22.458,8.512l0,50.704l22.458,-7.638Zm-26.95,182.233l0,-51.504l-17.967,3.2l0,50.996l17.967,-2.692Zm-22.458,3.346l0,-50.85l-13.475,2.4l0,50.417l13.475,-1.967Zm22.458,-60.233l0,-50.488l-17.967,4.438l0,49.25l17.967,-3.2Zm-22.458,4l0,-48.958l-13.475,3.271l0,48.088l13.475,-2.4Zm22.458,-59.871l0,-54.779l-17.967,6.112l0,53.033l17.967,-4.367Zm-22.458,5.454l0,-52.596l-13.475,4.583l0,51.288l13.475,-3.275Zm22.458,-65.762l0,-50.558l-17.967,6.763l0,49.904l17.967,-6.108Zm-22.458,7.637l0,-49.758l-13.475,5.092l0,49.25l13.475,-4.583Zm219.533,-107.012l24.283,14.988l0,28.3l-24.283,-43.288Zm-1.542,136.55l34.179,-8.658l-34.179,-57.763l0,66.421Zm49.9,-12.221l10.879,-3.129l14.033,8.146l0,-132.254l-24.913,-13.021l0,140.258Zm-155.529,-57.183l-29.054,-15.929l0,120.179l29.054,-7.346l0,-96.904Zm21.337,91.592l21.196,-5.458l0,-21.896l-21.267,-13.967l0.071,41.321Zm5.338,-46.704l18.175,11.858c11.017,-2.837 24.354,-6.258 28.983,-18.262l0,-61.254l-22.179,-12.367l0,68.242c-0.417,5.017 -11.858,9.092 -24.979,11.783Zm-5.9,-57.979l9.054,-3.713l0,35.937l-9.054,3.638l0,-35.862Zm141.208,299.646l23.863,5.604l22.042,-2.329l-23.721,-6.621l-22.183,3.346Zm24.567,-10.038l27.862,9.313l0.283,-17.387l-27.371,-10.404l-0.775,18.479Zm-3.3,-25.75l0,-15.204l-28.071,-10.842c-0.421,0.217 -0.913,0.508 -1.333,0.8c0.492,8.292 0.558,16.588 0.208,24.808l0.842,0.438l28.354,0Zm-22.388,-30.408l24.283,10.329l27.021,-10.913l-28.988,-12.15c-5.754,4.221 -15.017,8.512 -22.317,12.733Zm24.354,-18.625l29.054,12.875l0,-16.221l-28,-12.442l-1.054,15.788Zm-12.142,-86.5l31.163,18.117l0,11.858l-30.954,-17.679l-0.208,-12.296Zm29.758,35.65l-22.458,21.821l-28.425,-15.713l21.404,-22.263l29.479,16.154Zm-54.883,11.929l29.125,15.421l-0.142,2.183l-8.771,0.654l-19.862,4.367c0.421,-7.567 0.279,-15.058 -0.35,-22.625Zm-210.413,255.421c0,0 5.967,-1.896 3.442,-3.35c-2.529,-1.454 -8.004,-1.454 -10.179,-2.908c-2.175,-1.529 -2.808,-3.346 0.283,-3.712c3.158,-0.437 3.929,-1.162 4.208,-4.146c0.35,-2.979 0,-14.112 0,-14.112c0,0 -2.175,-2.113 -4.492,-3.638c0.213,4.437 0.35,6.837 -0.071,5.312c-0.208,0.433 -1.471,-3.129 -2.596,-6.771c-0.213,-0.071 -0.492,-0.142 -0.7,-0.142c-0.142,0 -0.354,-0.075 -0.421,-0.075c-1.683,-0.288 -3.3,-0.579 -4.846,-0.871c0.775,6.837 1.546,11.35 0.983,9.313c-0.279,0.583 -2.246,-5.604 -3.579,-9.896c-1.333,-0.292 -2.525,-0.654 -3.65,-0.946c1.546,6.55 2.737,11.279 1.333,10.479c-0.417,0.725 -3.158,-7.642 -4.35,-11.425c-5.125,-1.817 -8.004,-3.854 -8.004,-6.037c0,-1.963 2.321,-3.854 6.458,-5.454c-0.137,-1.892 -0.279,-3.783 -0.279,-4.8c0,-2.187 -0.283,-7.058 -0.283,-7.058c0,0 2.179,-4.804 3.163,-7.783c0.913,-2.988 4.35,-0.729 0.913,4.071c-2.388,2.988 -2.388,8.658 -1.546,14.842c1.404,-0.508 3.017,-0.946 4.775,-1.383c-0.071,-0.946 -0.071,-1.742 -0.071,-2.325c0,-2.183 0.913,-4.438 0.913,-4.438c0,0 0.979,-7.421 1.892,-10.404c0.912,-2.983 10.037,-8.946 3.158,-0.362c-2.387,2.908 -3.087,9.6 -2.946,16.875c1.683,-0.438 3.508,-0.725 5.475,-1.088l0,-1.679c0,-2.254 1.263,-3.342 1.263,-3.342c0,0 2.175,-12.658 3.158,-15.642c0.913,-2.913 10.038,-8.875 3.088,-0.363c-2.596,3.271 -3.508,11.638 -3.721,20.442c4.071,-0.583 8.492,-1.096 13.196,-1.383c2.104,-9.967 7.088,-15.567 11.792,-23.787c-12.917,-4.733 -21.125,-19.862 -21.267,-27.938c-19.933,10.908 -33.196,32.808 -33.196,57.979c0,35.867 27.792,65.183 61.971,65.183c21.546,0 64.992,-20.879 56.358,-54.85c-3.371,1.308 -8.775,2.542 -14.179,3.563c-1.613,3.421 -5.754,12.296 -6.175,11.571c-2.525,1.162 0.421,-4.371 2.458,-10.917c-3.021,0.508 -6.25,0.875 -9.688,1.238c0,0.075 -0.067,0.146 -0.067,0.221c-1.9,2.546 -4.704,5.529 -4.704,5.529c0,0 0.913,8.95 -1.267,9.313c-2.246,0.358 -3.158,2.254 -3.158,2.254l-5.962,8.146c0,0 -2.175,3.346 -5.054,4.8c-2.808,1.529 -4.983,7.858 -4.983,7.858c33.267,4.075 47.937,-32.958 47.304,-34.483c0,0 3.788,-1.092 0.283,5.604c-7.158,22.038 -25.688,34.917 -52.85,35.063c-5.546,-0.146 -7.929,-0.217 -7.792,-1.308c-3.508,2.329 -4.071,-4.296 -4.071,-4.296l4.279,-6.542c0,0 1.825,-2.258 2.458,-9.679c0.283,-3.346 2.246,-5.821 4.213,-7.492c-0.492,0.221 -0.913,0.363 -1.333,0.433c-2.529,0.371 -5.967,7.787 -5.683,10.404c0.346,2.621 -1.263,6.333 -4.075,7.421c-2.804,1.162 -3.437,5.604 -3.437,5.604c0,0 -3.229,1.817 -6.317,1.817c-2.104,0.075 -24.354,-13.167 -16.212,-14.55c4.35,-0.725 14.387,6.042 14.387,6.042Zm223.817,-307.363l0,-7.275l-15.442,-8.221l-14.317,8c3.087,8.004 5.196,15.862 6.458,24.446l23.3,-16.95Zm-113.204,108.613c1.542,4.071 4.279,10.113 6.383,23.058l-8,0.804c-0.138,-3.275 -5.404,-21.242 -9.192,-26.7l10.808,2.837Zm19.788,21.533c-0.138,-2.621 -1.679,-11.35 -4,-16.95c23.233,6.692 40.992,13.167 40.992,13.167l-36.992,3.783Zm-48.358,-17.025c2.737,4.15 6.108,9.533 8.779,21.171l-10.883,1.162c-1.542,-6.113 -3.575,-13.021 -6.738,-16.583l8.842,-5.75Zm-32.7,-76.238l48.354,-10.912l-18.529,47.287c-6.667,-0.654 -13.125,-1.383 -19.442,-1.313l-10.383,-35.063Zm-30.812,14.767l0,-8.004l12.842,0l0,8.15c-3.017,-0.654 -9.4,-0.8 -12.842,-0.146Zm20.283,7.638l1.475,-1.454l9.546,30.992c-1.687,-0.146 -4.354,-0.221 -6.037,-0.362l-6.529,-21.317c1.196,-1.821 3.158,-5.454 1.546,-7.858Zm45.829,179.542c-3.158,-9.383 -8.071,-16.512 -14.667,-24.296c-11.229,-12.512 -27.163,-20.296 -44.708,-20.296c-3.296,0 -6.458,0.292 -9.612,0.8c-0.071,2.471 0.208,5.092 1.542,6.4c20.213,13.896 50.392,16.004 67.446,37.392Zm-86.608,-49.758l-27.087,1.671c-1.333,10.625 -0.142,31.429 -0.142,31.429l-0.142,1.092c6.317,-10.404 15.158,-18.917 25.758,-24.512c-0.071,-3.496 0.35,-6.55 1.613,-9.679Zm33.829,-118.433c-0.35,-0.221 -0.771,-0.363 -1.121,-0.583c-1.683,-0.871 -4.354,-2.617 -5.754,-2.471c-1.125,0.146 -4.283,1.671 -6.108,2.254l0,19.571c2.175,-0.292 4.354,-0.583 6.529,-0.729c2.033,-0.217 4.142,-0.292 6.246,-0.363l0.208,-17.679Zm1.754,-4.367c-2.667,-0.654 -6.387,-3.492 -8.912,-3.2c-1.05,0.146 -4.279,1.821 -5.404,1.967c-1.121,0.071 -5.192,-0.292 -5.892,-2.767c-0.633,-2.475 -0.775,-1.817 0.137,-4.221c1.125,-1.671 3.229,-4.362 5.754,-4.071c3.021,-0.654 11.721,-0.221 13.054,0.583c1.404,0.871 3.933,3.271 3.933,6.329c0,2.979 -2.671,5.379 -2.671,5.379Zm-11.792,5.383l-1.612,0l0,12.15l1.612,0l0,-12.15Zm0,13.75l-1.612,0l0,1.383l1.612,0l0,-1.383Zm-3.929,34.483l4.846,0l0,-21.463c1.963,-0.288 3.858,-0.508 5.683,-0.654c1.125,-0.071 2.317,-0.142 3.437,-0.217l-0.35,22.625l-6.458,15.858l-7.158,-16.15Zm-1.471,-20.296l0,17.167l-6.95,-15.496c2.387,-0.654 4.704,-1.233 6.95,-1.671Zm2.733,1.671l-1.821,0l0,2.112l1.821,0l0,-2.112Zm0,9.096l-1.821,0l0,7.129l1.821,0l0,-7.129Zm14.742,61.908l-0.283,14.404c0,0 14.038,-1.238 13.404,-10.183c-0.629,-9.313 -7.012,-15.058 -14.733,-14.992c-12.004,0 -22.179,-1.379 -26.883,-9.6l-13.617,1.967c-2.733,4.292 -1.05,10.983 3.158,12.221c3.442,0.729 11.3,2.617 14.108,2.617c2.808,0 19.442,1.096 19.442,1.096c2.525,0.142 5.475,0.942 5.404,2.471Zm-27.229,-21.896c4.629,5.162 10.033,8.221 16.633,8.221l8.558,0l0.213,-10.842l-25.404,2.621Zm168.65,-22.771l-273.367,28.079c0,0 74.046,-56.454 125.908,-60.671c54.887,-4.292 147.458,32.592 147.458,32.592Zm-111.242,-28.154c4.279,0.946 12.492,6.983 13.333,8.729l-8.633,5.308c-4.983,-5.308 -12.633,-10.4 -20.279,-12.508l1.4,-3.058c4.633,0.367 9.404,0.875 14.179,1.529Zm-27.3,40.3l55.721,-35.137c-1.542,-0.363 -3.017,-0.65 -4.563,-0.942l-57.688,36.154l-0.279,0.654l-0.771,0.075l7.579,-0.804Zm-17.408,0.875l0.421,0.875l2.033,-0.221l-18.104,-38.337c1.262,-0.362 2.458,-0.8 3.721,-1.162l17.612,39.208l-11.437,1.167l-53.2,-20.733c1.333,-0.654 2.667,-1.383 4.071,-2.037l54.883,21.242Zm-16.983,-37.246l-0.142,0l0.142,0Zm45.617,-5.604l-20.071,42.85l-2.808,0.362l17.971,-43.429c0.137,0 6.667,0.362 4.908,0.217Zm142.054,31.5l-302.354,30.483c0,0 81.204,-63.438 138.404,-67.729c60.779,-4.875 163.95,37.246 163.95,37.246Zm-130.471,127.383l0,15.204c1.683,-0.146 3.3,-0.362 4.842,-0.583c0.983,-4.075 1.262,-8.15 -0.492,-11.129c-0.913,-1.237 -1.333,-2.329 -1.475,-3.2c-0.913,-0.075 -1.896,-0.217 -2.875,-0.292Zm-5.613,15.788c0.137,-4.004 0.208,-13.312 -0.704,-16.442c-1.546,-0.146 -3.158,-0.292 -4.771,-0.362c-0.912,2.033 -1.267,3.925 0.138,4.871c2.808,1.892 1.263,8.583 -0.983,9.675c-0.771,0.367 -1.683,1.383 -2.525,2.837c3.088,-0.146 6.033,-0.362 8.846,-0.579Zm-15.862,-35.358c-6.742,4.146 -4.142,-0.217 -4.213,15.35l0.983,0c0.558,-1.308 1.192,-2.325 1.192,-2.325c0,0 5.333,-2.258 6.246,-8.95c0.142,-1.021 0.492,-1.746 0.842,-2.183c-1.471,-0.725 -3.579,-1.238 -5.05,-1.892Zm13.262,6.188c0.421,2.179 0.842,5.237 0.071,6.837c-0.421,0.796 -1.054,1.888 -1.754,3.125c4.842,0.438 9.404,0.95 13.475,1.604c0.35,-0.217 0.7,-0.15 1.054,0.146c3.437,0.508 7.65,1.45 10.383,2.108c-3.296,-5.021 -12.913,-10.038 -23.229,-13.821Zm29.9,23.929c-0.283,-2.617 -2.317,-5.887 -4,-7.492c-3.229,-1.092 -6.667,-1.529 -9.896,-2.037c-0.633,-0.071 -1.337,-0.217 -2.038,-0.288c0.7,2.033 1.613,3.929 2.317,5.892c0.142,1.746 0.279,3.2 0.279,3.2l0,4.217c5.617,-0.942 10.6,-2.179 13.338,-3.492Zm-88.154,4.367c-0.212,-4.287 -0.35,-9.529 -0.35,-14.696c3.863,-0.508 8.142,-0.946 12.704,-1.233c-0.771,3.708 -1.613,7.854 -2.387,11.562c-1.263,6.333 -6.879,4.075 -8.421,4.075c-0.35,0 -0.913,0.146 -1.546,0.292Zm-4.208,-14.183c-0.142,2.471 -0.213,5.017 -0.213,5.017l-0.35,4.438c0,0 0.563,1.967 1.333,4.367c-1.892,-0.217 -3.65,-0.513 -5.333,-0.8c-0.35,-3.783 -0.704,-8.004 -0.842,-12.15c1.683,-0.292 3.438,-0.583 5.404,-0.871Zm-8.213,1.45c0.213,2.55 0.421,5.021 0.421,5.021l-0.35,4.442c0,0 0.142,0.583 0.421,1.454c-1.192,-0.292 -2.387,-0.583 -3.442,-0.871c-0.629,-2.767 -1.263,-5.821 -1.683,-8.733c1.333,-0.437 2.879,-0.875 4.633,-1.312Zm-6.738,2.042c0.142,1.525 0.213,2.617 0.213,2.617l0.558,4.363c-2.946,-1.088 -4.563,-2.325 -4.563,-3.633c0,-1.162 1.333,-2.254 3.792,-3.346Zm73.833,14.913c-1.267,0.075 -2.525,0.146 -3.862,0.217c-0.771,2.546 -1.263,5.817 -0.979,9.821c0.629,8.875 -6.246,10.771 -8.496,11.496c-2.171,0.725 -6.246,0.362 -6.875,4.075c-0.633,3.708 -2.529,6.692 -4.071,7.417c-1.192,0.583 -2.458,3.129 -4.633,5.675c3.229,-2.033 8,-4.075 8.704,-4.875c1.546,-1.887 4.421,-6.687 4.421,-6.687c0,0 1.546,-2.258 4.983,-3.35c3.438,-1.163 5.967,-6.692 5.967,-6.692c0,0 -0.283,-4.875 1.892,-7.421c2.175,-2.617 2.808,-6.696 2.808,-6.696c0,0 -0.067,-1.671 0.142,-2.979Zm-16.354,0.654c-0.842,0.071 -1.683,0.071 -2.596,0.071c-0.35,0.508 -0.633,0.729 -0.633,0.729c0,0 -1.263,5.233 -1.263,7.421c0,1.237 -0.983,2.837 -2.246,4.075c1.617,-1.021 2.879,-1.458 2.879,-1.458c0,0 4.704,2.258 3.787,-6.325c-0.208,-1.604 -0.137,-3.129 0.071,-4.513Zm2.808,-21.392c-0.071,1.383 0.279,2.767 1.825,3.642c4.071,2.183 -0.35,8.508 -0.35,8.508c0,0 -2.317,2.258 -3.65,6.333l-1.475,0c1.404,-3.275 3.017,-8.95 3.229,-18.55c0.142,0 0.283,0 0.421,0.067Z" style="fill:#7a003c;"/></g></svg>